PathFileType	4	(X/Y/Z)	Patient4_TMGait_0pt2_01_left_20.trc.trc
DataRate	CameraRate	NumFrames	NumMarkers	Units	OrigDataRate	OrigDataStartFrame	OrigNumFrames
44.164037854890	44.164037854890	4	33	mm	44.164037854890	89	       141
Frame#	Time	Sacral			L.Shoulder			Chest			R.Shoulder			Neck			R.ASIS			L.ASIS			R.Thigh.Superior			R.Thigh.Lateral			R.Thigh.Inferior			R.Patella			L.Thigh.Superior			L.Thigh.Lateral			L.Thigh.Inferior			L.Patella			L.Shank.Superior			L.Shank.Lateral			L.Shank.Inferior			R.Shank.Superior			R.Shank.Lateral			R.Shank.Inferior			R.Heel			R.Midfoot.Superior			R.Midfoot.Lateral			R.Toe			L.Heel			L.Midfoot.Lateral			L.Midfoot.Superior			L.Toe			L.Elbow			L.Wrist			R.Elbow			R.Wrist			
		X1	Y1	Z1	X2	Y2	Z2	X3	Y3	Z3	X4	Y4	Z4	X5	Y5	Z5	X6	Y6	Z6	X7	Y7	Z7	X8	Y8	Z8	X9	Y9	Z9	X10	Y10	Z10	X11	Y11	Z11	X12	Y12	Z12	X13	Y13	Z13	X14	Y14	Z14	X15	Y15	Z15	X16	Y16	Z16	X17	Y17	Z17	X18	Y18	Z18	X19	Y19	Z19	X20	Y20	Z20	X21	Y21	Z21	X22	Y22	Z22	X23	Y23	Z23	X24	Y24	Z24	X25	Y25	Z25	X26	Y26	Z26	X27	Y27	Z27	X28	Y28	Z28	X29	Y29	Z29	X30	Y30	Z30	X31	Y31	Z31	X32	Y32	Z32	X33	Y33	Z33	

89	48.002571428571	758.102286055473	1011.308269858718	513.015775285599	992.439347082889	1434.391745615051	394.105751950569	1048.914045752292	1354.611587986002	572.012037082659	927.716305381120	1426.145712134979	722.601064801798	938.739372826728	1491.440355824109	546.742042240155	959.800617658617	934.062928277039	671.913016318804	996.283934498302	956.517933846772	400.753492709266	1019.874748019858	744.277661779360	626.281452383047	947.619659505523	624.976554861646	676.587728848107	1032.185020685783	581.713212755275	597.554608069301	1041.578684837155	489.593451021515	600.809891185238	979.312928011006	721.798664642448	418.169352945247	867.147249744226	633.308668696638	335.416751278772	914.624457449090	536.046396555619	404.017369969213	894.224239252564	466.887892298815	405.400097536617	847.089766567320	408.750907835011	386.949635230167	731.819364778713	328.800447921869	320.839098578448	745.367314525003	201.420417587143	383.338177849129	1004.831087864080	400.725127812143	603.350921032042	927.516412156003	301.127483275609	665.030981004939	958.765609112908	205.269764015917	598.707953615904	810.654688005077	46.537396423086	573.986118448089	984.798559509985	97.560523655535	604.554147641809	896.222654254581	38.807154882160	645.161358991775	1103.830275247758	40.180729215326	629.522261929558	578.570402810668	74.044051364233	401.792077709934	658.229459193229	55.593828357834	330.230454424375	748.708404636747	103.311826756199	362.907923027289	866.479114765684	36.560484465833	346.973823718792	1120.514701361931	1124.284333455084	254.209244026303	1374.724083020898	1090.493956896174	301.679199394390	785.136413085896	1100.748050175638	799.905110913262	799.234645117070	841.617369554296	832.520861598182	
90	48.025214285714	758.489564190064	1011.349152748234	518.719041468104	991.096834990359	1434.484290419040	396.550989401145	1049.426387397336	1355.131045760330	574.058282949389	929.578264830014	1426.622775499835	725.706409696771	938.878987334748	1491.824620139039	549.498258987699	961.663518654445	934.369720910228	675.700732335363	995.429663053757	956.769481468704	404.285558828817	1020.234741190832	743.423578888306	629.263574776389	946.963613622702	624.501400865914	679.277377062280	1030.649328843811	580.909358340251	599.596455216015	1039.177111230829	488.669725727770	602.284778096426	980.540954242593	722.367843694300	420.878804139885	868.791810578464	633.186793786869	338.639893103070	918.330579980530	535.701893905515	406.028225860765	898.489932824755	465.452818038631	406.628584064587	849.582690775837	408.114972147677	388.440643507160	732.312146711954	330.816243454412	322.585170627795	744.288357030086	202.576653854286	383.524095665892	1001.916583797180	400.113115350682	604.620167276614	924.284648465057	300.593346003429	665.964090635254	954.906807195286	204.958340033591	599.169150868399	806.249052819567	46.480849161882	573.995814708623	980.344225207716	97.531775368789	604.582335902346	891.800804622359	38.762496849707	645.171186095852	1099.398784199954	40.100438351476	629.578637761476	575.354542334717	78.208797227516	401.495339504587	654.643555587325	57.908643660676	330.057396520026	746.074585654972	103.891584431460	362.599149664136	862.197907999398	36.406657829037	347.103680392193	1111.518864902983	1118.780000284552	259.089714348158	1363.756960029323	1070.324486428279	305.350003816930	789.780192504965	1100.644379317380	807.193357594553	808.934098183100	842.079067605617	841.645120332260	
91	48.047857142857	758.502742257489	1011.023029648520	524.378350438029	989.270540277435	1434.229226439332	398.768622789983	1049.550612449272	1355.315231055057	575.814121639212	931.227190685948	1426.790323949228	728.618555051418	938.687156001097	1491.891695259289	552.057973661999	963.309811982207	934.388388383161	679.298818358425	994.142818802077	956.702430397821	407.598200386501	1020.551380558533	742.462203331350	631.981241854000	946.465731750227	623.825159295328	681.762768548448	1029.279290677245	580.007497485353	601.393182400165	1037.008198835524	487.597336393395	603.530847727234	982.225998171678	722.804901162509	423.533872801711	871.392503299577	632.475686159859	341.862881356097	923.387314945757	534.991485824698	408.064995405085	904.232462529977	463.479370968428	407.819074434843	853.318628943766	406.930068434403	389.969841517880	733.957863261187	332.753127654542	324.330853601237	743.793870477155	203.733020834181	383.699780245961	999.172783081380	399.331033955115	605.716240659370	921.189466867413	299.961130210843	666.818048340524	951.048065071329	204.522762144662	599.554311377483	801.729233923997	46.357974729818	574.012782089141	975.767568143013	97.466831544248	604.587899632498	887.268999396669	38.686795459462	645.196907786321	1094.863880342970	40.087637445825	629.616939288501	572.408578147348	83.093790004336	401.057606040119	651.219834035763	60.704368835132	329.795742446845	743.644797984119	104.623108796866	362.263412959457	857.795983902166	36.179064600606	347.313648312480	1101.296720201434	1112.988376096191	263.707667342943	1350.267847788476	1048.313784758394	308.295769479107	794.937262011838	1099.908882468409	814.274013994267	820.048887267631	842.051420035818	850.214056266265	
92	48.070500000000	758.154476292056	1010.318549734365	530.014873991478	986.945183744046	1433.607850567496	400.767922598504	1049.280065500564	1355.150721416583	577.283778527560	932.673141057580	1426.636878124126	731.348159243268	938.162215405139	1491.629891051309	554.436025338049	964.766314770182	934.122323625435	682.694680490628	992.441286569701	956.307690702151	410.686161796136	1020.885695462105	741.403823647143	634.433029550561	946.218200010541	622.936234885097	684.044582586940	1028.169351432325	579.009027461411	602.934985661894	1035.191705043235	486.369367782185	604.538224882730	984.428502290791	723.159284550120	426.161312728839	875.079847790613	631.227049223926	345.078108474957	929.910397744060	534.000874742913	410.157726505764	911.557106136771	461.075196280988	409.002913820881	858.429357518617	405.280056755093	391.545789421415	736.901496331078	334.745266858853	326.084653501054	743.991791254061	205.044893388280	383.875069288753	996.700148327966	398.368319593306	606.623628317475	918.324085684217	299.228730116043	667.583623122497	947.247170141860	203.958010113937	599.851278820606	797.116540405161	46.187242578138	574.044417129074	971.096969703932	97.369056270638	604.572926311740	882.653056326857	38.584699226850	645.239576172470	1090.254349582423	40.117487229400	629.635877510667	569.850048452184	89.012911870634	400.505156523514	648.028577230322	64.238666961816	329.466169071910	741.493300976428	105.649186751500	361.924480323887	853.247132419721	35.844517442594	347.607990483106	1089.888075507290	1106.968372598301	268.117688121870	1333.998784306518	1024.733184621945	310.470311896448	800.779496445703	1098.490716123645	821.131765011283	832.803261822026	841.551441954310	858.223043756091	
